P1
# Created by GIMP version 2.10.18 PNM plug-in

183 181
111111111111111111111111111111111111111111111111111111111111111111111111111111111111111111111111111111111111111111111111111111111111111111111111111111111111111111111111111111111111100111111111111111111111111111111111111111111111111111111111111111111111111111111111111111111111111111111111111111111111111111111111111111111111111111111111111111111111111111111111111100110000000000000000000000000000000000000000000000000000000000000000000000000000000000000000000000000000001111111100000000000000000000000000000000000000000000000000000000000000010111100110000000000000000000000000000000000000000000000000000000000000000000000000000000000000000000000000000000000000000000001000000000000000000000000000000000000000000000000000000111111100110000000000000000000000000000000000000000000000000000000000000000000000000000000000000000000000000000000000000000000001000000000000000000000000000000000000000000000000000000000011100110000000000000000000000000000000000000000000000000000000000000000000000000000000000000000000000000000000111111000000000000000000000000000000000000000000000000000000000000000001001100110000000000000000000000000000000000000000000000000000000000000000000000000000000000000000000000000001110000000000000001000000000000000000000000000000000000000000000000000000000001100110000000000000000000000000000000000000000000000000000000000000000000000000000000000000000000000000000000001100000000000000000000000000000000000000000000000000000000000000000000110100110000000000000000000000000000000000000000000000000000000000000000000000000000000000000000000000000000000000000000000000000000000000000000000000000000000000000000000000000000000000100110000000000000000000000000000000000000000000000000000000000000000000000000000000000000000000000000000000000000000000000000000000000000000000000000000000000000000000000000000000001100110000000000000000000000000000000000000000000000000000000000000000000000000000000000000000000000000000000000000000000000000000000000000000000000000000000000000000000000000000000001100110000000000000000000000000000000000000000000000000000000000000000000000000000000000000000000000000000000000000000000000000000000000000000000000000000000000000000000000000000000000100110000000000000000000000000000000000000000000000000000000000000000000000000000000000000000000000000000000000000000000000000000000000000000000000000000000000000000000000000000000000100110000000000000000000000000000000000000000000000000000000000000000000000000000000000000000000000000000000000000000000000000000000000000000000000000000000000000000000000000000000000100110000000000000000000000000000000000000000000000000000000000000000000000000000000000000000000000000000000000000000000000000000000000000000000000000000000000000000000000000000000000000110000000000000000000000000000000000000000000000000000000000000000000000000000000000000000000000000000000000000000000000000000000000000000000000000000000000000000000000000000000000000110000000000000000000000000000000000000000000000000000000000000000000000000000000000000000000000000000000000000000000000000000000000000000000000000000000000000000000000000000000000000110000000000000000000000000000000000000000000000000000000000000000011111000000000000000000000000000000000000000000000000000000000000000000000000000000000000000000000000000000000000000110000000000000000000000000000000000000000000000000000000011111111111111111111101000000000000000000000000000000000000000000000000000000000000000000000000000000000000000000000000000000110000000000000000000000000000000000000000000000000000000011111111111111111111111111100000000000000000000000000000000000000000000000000000000000000000000000000000000000000000000000000110000000000000000000000000000000000000000000000000000010111111111111111111111111111111100000000000000000000000000000000000000000000000000000000000000000000000000000000000000000000000110000000000000000000000000000000000000000000000000000111111111111111111111111111111111110000000000000000000000000000000000000000000000000000000000000000000000000000000000000000000000110000000000000000000000000000000000000000000000000000111111111111111111111111111111111111000000000000000000000000000000000000000000000000000000000000000000000000000000000000000000000110000000000000000000000000000000000000000000000000000111111111111111111111111111111111111100000000000000000000000000000000000000000000000000000000000000000000000000000000000000000000110000000000000000000000000000000000000000000000000111111111111111111111111111111111111111111000000000000000000000000000000000000000000000000000000000000000000000000000000000000000000110000000000000000000000000000000000000000000001111111111111111111111111111111111111111111111111000000000000000000000000000000000000000000000000000000000000000000000000000000000000000110000000000000000000000000000000000000000000001111111111111111111111111111111111111111111111111100000000000000000000000000000000000000000000000000000000000000000000000000000000000000110000000000000000000000000000000000000000001111111111111111111111111111111111111111111111111111111100000000000000000000000000000000000000000000000000000000000000000000000000000000000110000000000000000000000000000000000011000011111000000111111111111111111111111111111111111111111111110000000000000000000000000000000000000000000000000000000000000000000000000000000000110000000000000000000000000000000001110000111100000000011111111111111111111111111111111111111111111111000000000000000000000000000000000000000000000000000000000000000000000000000000000110000000000000000000000000000000011100001110000000000011111111111111111111111111111111111111111111111100000000000000000000000000000000000000000000000000000000000000000000000000000000110000000000000000000000000000000111000001100000000000000011111111111111111111111111111111111111111111110000000000000000000000000000000000000000000000000000000000000000000000000000000110000000000000000000000000000001100000011000000000000000000111111111111111111111111111111111111111111111000000000000000000000000000000000000000000000000000000000000000000000000000000110000000000000000000000000000000000001110000000001111111000000111111111111111111111111111111111111111111000000000000000000000000000000000000000000000000000000000000000000000000000000110000000000000000000000000000011000001100000000111111111000000111111111111111111111111111111111111111111100000000000000000000000000000000000000000000000000000000000000000000000000000110000000000000000000000000000000000111100000000011111111000000111111111111111111111111111111111111111111000000000000000000000000000000000000000000000000000000000000000000000000000000110000000000000000000000000000000001110000011110011111110000011111111111111111111111111111111111111111111000000000000000000000000000000000000000000000000000000000000000000000000000000110000000000000000000000000000000000110011111100011111111100011111111111111111111111111111111111111111111100000000000000000000000000000000000000000000000000000000000000000000000000000110000000000000000000000000000000001111111111100111111111000000111111111111111111111111111111111111111111110000000000000000000000000000000000000000000000000000000000000000000000000000110000000000000000000000000000000011111111111111110111110000000111111111111111111111111111111111111111111110000000000000000000000000000000000000000000000000000000000000000000000000000110000000000000000000000001100000011111111111110101111100000010111111111111111111111111111111111111111111110000000000000000000000000000000000000000000000000000000000000000000000000000110000000000000000000000001000001111111111111110001111100000000111111111111111111111111111111111111111111111000000000000000000000000000000000000000000000000000000000000000000000000000110000000000000000000000010000001111111111100000001111101000000111111111111111111111111111111111111111111111000000000000000000000000000000000000000000000000000000000000000000000000000110000000000000000000000000000011111110011100001011111110100001111111111111111111111111111111111111111111111100000000000000000000000000000000000000000000000000000000000000000000000000110000000000000000000000100000011111000111000000011111110100011011111111111111111111111111111111111111111111100000000000000000000000000000000000000000000000000000000000000000000000000110000000000000000000001000000011111011111100000111111111100101111111111111111111111111111111111111111111111100000000000000000000000000000000000000000000000000000000000000000000000000110000000000000000000001000000111101111111000001111111111000000111111111111111111111111111111111111111111111100000000000000000000000000000000000000000000000000000000000000000000000000110000000000000000000001000001111111111100000000111111110100000111111111111111111111111111111111111111111111110000000000000000000000000000000000000000000000000000000000000000000000000110000000000000000000110000011110111110000110000111111111000000111111111111111111111111111111111111111111111011000000000000000000000000000000000000000000000000000000000000000000000000110000000000000000000100000011111110000001000000111111111000000011111111111111111111111111111111111111111111110000000000000000000000000000000000000000000000000000000000000000000000000110000000000000000000100000111111000000110000000111111111111100011111111111111111111111111111111111111111111100000000000000000000000000000000000000000000000000000000000000000000000000110000000000000000001100000110000000000110000000011111111110100011111111111111111111111111111111111111111111110100000000000000000000000000000000000000000000000000000000000000000000000110000000000000000001100001100000110000011000000000111111110000011111111111111111111111111111111111111111111111000000000000000000000000000000000000000000000000000000000000000000000000110000000000000000000000011100001100000000000000000011111110000011111111000000011111111111111111111111111111111000000000000000000000000000000000000000000000000000000000000000000000000110000000000000000000000011000000000000100000000000011111010000011111110000000011111111111111111111111111111111100000000000000000000000000000000000000000000000000000000000000000000000110000000000000000000000110000010000000000000000000111111001000011111100000000000111111111111111111111111111111111000000000000000000000000000000000000000000000000000000000000000000000110000000000000000000000110000000000110000000000000111110000000001011110000000001111111111111111111111111111111111000000000000000000000000000000000000000000000000000000000000000000000111000000000000000000000110000000000000000000000000011000011000000111111111110000111111111111111111111111111111111000000000000000000000000000000000000000000000000000000000000000000000111000000000000000000100000000000000000000000000000000000111000000011111100000110011111111111111111111111111111111000000000000000000000000000000000000000000000000000000000000000000000111000000000000000000100000000000000000000000000000000000110000000001110000000000001111111111111000011111111111111000000000000000000000000000000000000000000000000000000000000000000000111000000000000000000000000000000000000000000000000000000110000000011110111111001000111111111110000001111111111111000000000000001111100000000000000000000000000000000000000000000000000111000000000000000000000000000000000000100000000000000010110000000011110100001001100011111111100000000111111111111000000000000001111110000000000000000000000000000000000000000000000000111000000000000000000010000000000000000000000000000000010110000110011000000000001110001111111000000000111111111111100000000000111111110000000000000000000000000000000000000000000000000111000000000000000010010000000000000000000000000000000011100000101111000000010000111001111110000000000111111111111111000000001111111111000000000000000000000000000000000000000000000000111000000000000000000110000000000000000000000000000000001110011111110000000011000001101111010110011000111111111111111001000001111111111000000000000000000000000000000000000000000000000111000000000000000001111000000000000000000000000000000000111011111110011000111111111111111000000000101111111111111111001000001111111111000000000000000000000000000000000000000000000000111000000000000000001101000000000000000000000000000000000111111111110111111111111111111111111000000101111111111111111001000001111111111100000000000000000000000000000000000000000000000111000000000000000000111000001000000000000000000000000000000111111111100111111111111111111111000010001111111111111111100110001111111111100000000000000000000000000000000000000000000000111000000000000000000110000001111000000000000000000000000000111111111110001111111111111111111100110001111111111111111100111011111111111100000000000000000000000000000000000000000000000111000000000000000000110000001111000000000000000000000000001111111111111111111111111111111111111111101111111111111111100111111111111111100000000000000000000000000000000000000000000000111000000000000000000000000001111000000000000000000000000000111111111111111111111111111111111111111111111111111111111100111111111111111110000000000000000000000000000000000000000000000111000000000000000000000000001111000000000000000000000000000111111111111111111111111111111111111111111111111111111111100111111111111111111000000000000000000000000000000000000000000000111000000000000000000000000001111000010000000000000000000000111111111111111111111111111111111111111111111111111111111100111111111111111111000000000000000000000000000000000000000000000111000000000000000000000000001111000010000000000000000000000111111111111111111111111111111111111111111111111111111111100111111111111111100000000000000000000000000000000000000000000000111000000000000000000000000001111000011000000000000000000000011111111111111111111111111111111111111111111111111111111100111111111111111101100000000000000000000000000000000000000000000111000000000000000000000000001111000001000000000000000000000011111111111111111111111111111111111111111111111111111111111111111111111111110000000000000000000000000000000000000000000000111000000000000001000000000001111000001000000000000000000000011111111111111111111111111111111111111111111111111111111111111111111111111010001111110000000000000000000000000000000000000111000000000000001000000000001111000000000000000000000000000001111111111111111111110001111111111111111111111111111111001111111111111111000011111111000000000000000000000000000000000000111000000000000001000000011001111000000001000000000000000000011111111111111111111000001111111111111111111111111111111001111111111111111000111111111000000000000000000000000000000000000111000000000000000000000011001111000000001100000000000000000011111111111111111111000000111111111111111111111111111111111111111111111111001111111111111100000000000000000000000000000000111000000000000001000000011000111000000001000000000000000000011111111111111111100111000111111111111111111111111111111001111111111111111011111111111111111111100000000000000000000000000111000000000000001000000010000111000000001000000000000000000011111111111111111000111000111111111111111111111111111111101111111111111100111111111111111111111110000000000000000000000000111000000000000000000000010000011000000001100000000000000000111111111111111111000111100111111111111111111111111111111111111110011111100111111111111111111111111000111110000000000000000111000000000000000000000000000011000000001100000000000000000111111111111111111000011100011111111111111111111111111111111111110011110000111111111111111111111111001111110000000000000000111000000000000000000001100100001100000000100000000000000001111101111111111111000000000011111111111111111111111111111111111100011100000111111111111111111111111111111111000000000000000111000000000000000000011100100000110000000000000000000000001111101111111111111000000000001111111111111111111111111111111111000011100001111111111111111111111111111111110000000000000000111000000000000000000011100000000100000000000000000000000001111001111111111111100000000000001111111111111111111111111111110000001100011111111111111111111111111111111110000000000000000111000000000000000010011000000000000000000000000000000000001111001111111111111111100000000011101111111111111111111111111000000001100001111101001111111111111111111111000000000000000000111000000000000000001110000000000000000000000000000000000001111000111111111111111110000001111111111111111111111111110110000000011100000110011001111111100111111111111100000000000000000111000000000000000001100000000000000000000000000000000000001110000111111111111111111100011111111111111111111111111110110000000111100000000000001111110001111111111111110000000000000000111000000000000000011000000000000000000000000000000000000001100001011111111111111111111111111111111111111111111111101110000000111100000001000000111000111100111111111110000000000000000111000000000000000000000000000000000000000000000000000000001100011110111111111111111111111111111111111111111111111101111000001111110001111000000000000110000111111111111111100000000000111000000000000000000000000000000000000000000000000000000000000011110101110111111111111111111111111111111111111111011111000001111111111110000000000001100000011110001111111110000000000111000000000000000000000000000000000000000000000000000000000000010110001110011111111111111111111111111111111111111011111000011111111111110000000000011100000000000000111111100000000000111000000000000000000000000000000000000000000000000000000000000011100000110001110111101111111111111111111111111111011111000011111111111111000111001111000000000000001111111100000000000111000000000000000000000000000000000000000000000000000000000000001100000010000000001001111111111111111111111111111011110000011111111111111111111101111000000000000111111110000000000000111000000000000000000000000010000110000000000000000000000010000001100000000000000000000111111111111111111111111110111110000011111111111111111111111111000000000011111111100000000000000111000000000000000000000000010000000000000000000000000000000000000100000000000000000000011111111111111111111111110111100000011111111111111111111111111100000001111111111000000000000000111000000000000000000000000010000000000000000000000000000001000000100000000000000000000000000111111111111111111100111000000111111111111111111111111111100000111111111100000000000000000111100000000000000000000000000000000000000000000000000000000100001110000000000000000000001000101111111111111111100111000001111111111111111111111111111000001111111110000000000000000000111100000000000000000000000000100000000000000000000000000000000001110000000000000000000001000001111111111111111100111000001110111111111111111111111111000111111111100000000000000000000111000100000000000000000000001100000000000000000000000000000000001110110011111100000000111100011111111111111111100110000011111111111111111111111111110011111111111000000000000000000000111011000000000000000000000011110000000000000000000000000000000000111110111111111111111111100111111111111111111100110000011111111111111111111111111110111111111111110000000000000000000111111000000000000000000000010001000000000000000000000000000000000111111111111111111111111000111111111111111111100000000011011111111111111111111111111111111111111111100000000000000000111110000000000000000000000000110110000000000000000000000000000000111111111111111111111111001111111111111111111100000000011111111111111111111111111111111111111111111100000000000000000111010000000000000000000000000010110000000000000000000000000000000001111111111111111111111111111111111111111111100000000000111111111111111111111111111111111111111111100000000000000000111000000000000000000000000000000011000000000000000000000000000000000111111111111111111111111111111111111111111100000000000011111111111111111111111110011111111111111100000000000000000110000000000000000000000000000000001000000000000000000000000000000000011111111111111111111111111111111111111111110000000000001111111111111111111101100001111111111100000000000000000000110000000000000000000000000000000000100000000000000000000000000000000000111111111111111111111111111111111111111110000000000001111111111111111111100000000000000000000000000000000000000110000000000000000000000100000000000010000000000000000000000000000000000001111111111111111111111111111111111111110000000000001111111111111111110000000000000000000000000000000000000000110000000000000000000000110000000000000000000000000000000000000000000000000011111111111111101111111111111111111110000000000001111111111111111100000000000000000000000000000000000000000110000000000000000000000000000000000000000000000000000000000000000000000000000111101110011110111111111111111111110000000000001111111111111111100000000000000000000000000000000000000000110000000000000000000000110000000000000000000000000000000000000000000000000000000000000001110011111111111111111111000000000001111111111111111000000000000000000000000000000000000000000110000000000000000000000001100000000000000000000000000000000000000000000000000000000000001110011111111111111111111000000000101111111111111110000000000000000000000000000000000000000000110000000000000000000000000000000000000100000000000000000000000000000000000000000111000000110001111111111111111111000000000001111111111111111000000000000000000000000000000000000000000110000000000000000000000000000000000000011000000000000000000000000000000000000111111100000110000101111111111111111100000000001111111111111111100000000000000000000000000000000000000000110000000000000000000000000000000000000011100000000000000000000000000000000011111111100000010000100111111111111111100000000001111111111111111111110000000000000000000000000000000000000110000000000000000000000000000000000000000011000000000000000000000000000001111111001100000010000100011111111111111100000000001111111111111111111110000000000000000000000000000000000000110000000000000000000000000000000000000000011000000000000000000000000000111111111111110000001000110001111111111111110000001111111111111111111111000000000000000000000000000000000000000110000000000000000000001110000000000111000001100000000000000000000000001111111111100110000001000100000111111111111110001111111111111111111111111010000000000000000000000000000000000000110000000000000000000000010001000000110000001111000000000000000000000001111111111000110000000000000000111111111111110001111111111111111111111111000000000000000000000000000000000000000110000000000000000100001000011101100000000000000100000000000000000000011111111111100000000000000000000111111111111110001111111111111111111111111100000000000000000000000000000000000000110000000000000000110000000011101110001000000001110000000000000000000111111111111100000000000000000000011111111111110000111111111111111111111111100000000000000000000000000000000000000110000000000000000000000000000001011001001100001111000000000000000000111111111111110000000000000000000011111111111110001111111111111111111111111000000000000000000000000000000000000000110000000000000000000000000000010001100001110000001100000000000000000111111111111110000000000100000000001111111111110001111111111111111111111100000000000000000000000000000000000000000110000000000000000000000001100010001100000111100000110000000000000000111111111111110000000000100000000000111111111110011111111111111111111111100000000000000000000000000000000000000000110000000000000000000000000000000000100000111110000111000001111110011111111111111111000000000000000000000011111110000111111111111111111111111100000000011000000000000000000000000000000110000000000000000000000000000000000000000100000010011100001111111111111111111111111000000000000000000000000111100000100111111111111111111111000000000011100000000000000000000000000000110000000000000000000000000010000100000000000000000101100000111111111111111111111111000000000000000000000000010000000100111111111111111111110000000000011100000000000000000000000000000110000000000000000000000000000000110011100000000000101110000011111111111111111111111000000000000000000000000000000001100111011111111111111100000000000011100000000000000000000000000000110000000000000000000000000000110000111111000000000001111000000111111111111111111111000000000000000000000000000000001101111011111111111111000000000000001100000000000000000000000000000110000000000000000000000000000000000111111110000000111111000000011111111111111111111000000000000000000000000000000001101110011111111111111000000000000001100000000000000000000000000000110000000000000000000000000000000011100110111100000011111100000011111111111111111111000000000000000000000000000000001101110011101111111111000000000100011100000000000000000000000000000110000000000000000000000000000000001000000000111000001111110000001111111111111111111100000000000000000000000000000011001110011101111111111100000001100011100000000000000000000000000000110000000000000000000000000000000000100000000011100000111111000001111111111111111111100000000000000000000000000000011001100111101111111111111000001100111100000000000000000000000000000110000000000000000000000000000001001111111101110110000110111100001111111111111111111100000000000000000000000000000111011100111101111111111111000111001111000000000000000000000000000000110000000000000000000000000000000000111111000011100110011111100000111111111111111111100000000000000000000000000000110011101111011101111111111101111011110000000000000000000000000000000110000000000000000000000000000000000001111010001001111000111110000011111111111111111100000000000000000000000000000110011101111011101111111111101111111100000000000000000000000000000000110000000000000000000000000000000000000111111011011111000011111000011111111111111111100000000000000000000000000001110111111111011101111111111111111110000000000000000000000000000000000110000000000000000000000000000000000110011111111111111110011111100001111111111111111100000000000000000000000000000110111011111111111111111111011110100000000000000000000000000000000000110000000000000000000000000000000000110001100110011001110111111100001111111111111111100000000000000000000000000000100011111110111111111111110000000000001000000000000000000000000000000110000000000000000000000000000000000000101110110011100100011111110001111111111111111110000000000000000000000000000000000011111111111111111110000000000001000000000000000000000000000000110000000000000000000000000000000000000111111111111100001011111110000011111111111111110000000000000000000000000000010011000111111111111111100000000000001000000000000000000000000000000110000000000000000000000000000001000000011111111111110001011111111000011111111111111110000000000000000000000000110110111111100111111111111100000000100001000000000000000000000000000000110000000000000000000000000000000000001011011111111111100001111111000010111111111111110000000000000000000000001111100111111110011111111111100000000100100000000000000000000000000000000110000000000000000000000000000000000000101111111111111110000111111100000111111111111100000000000000000000000000011100111111111000111111111000000000100101000000000000000000000000000000110000000000000000000000000000010000000111111111111111110000011111100000111111111111100000000000000000000000000011101110111111100000111111000000001100001100000000000000000000000000000110000000000000000000000000000001000000111111111111111111000011111110000001111111111000000000000000000000000000000001000011111111100111111000001001100001100000000000000000000000000100110000000000000000000000000000000000000111011111111111111110011111111001001111111000000000000000000000000000000000001000011111111110000111000001000100111100000000000000000000000000100110000000000000000000000000000000000000101111111111111111111011111111000001111111000000000000000000000000000000000011100111111111111100110000001000100111110000000000000000000000000100110000000000000000000000000000000000000000111111111111111111111111111100101111110000000000000000000000011000000100001000111111111111100010000000000100001110000000000000000000000000000110000000000000000000000000000000000000000000011111111111111111111111100001111110000000000000000000001111111111111111000001111111111110010000000000101110010000000000000000000000000000110000000000000000000000000000000000000000110001111101111111111111111100100111110000000000000000000001111111111111111110011111111111111000000001000001100110000000000000000000000000000110000000000000000000000000000000000000000000000111111111111111111111110100111110000000000000000000000100111111111111110111111111111111000000000000001110010000000000000000000000000000110000000000000000000000000000000000000010000010000111110111111111111110000001100000000000000000000000000000011111111111111111111111111000000000000001110110000000000000000000000000000110000000000000000000000000000000000000000110001100111111111111111111110000001100000000000000000000000000000000011111111111111111111111000000000111100110110000000000000000000000000000110000000000000000000000000000000000000000000000111110111111111101111110000001100000000000000000000000000000000001111111111111111111111000000000011000100010000000000000000000000000000110000000000000000000000000000000000000000000000011110011111111001111111000111100000000000000000000000000000000000011111111111111111111000000000000000100010000000000000000000000000000110000000000000000000000000000000000000000000000011111111111111111111011001111100000000000000000000000000000000000000011111111111111111000000000001000000010000000000000000000000000000110000000000000000000000000000000000000100000011111111111111111111111001000111100000000000000000000000000000000000000011111111111111111000000000001000000010000000000000000000000000000110000000000000000000000000000000000000000001101110111111111111111111111111111000000000000000000000000000011000000000011111111111111111000000000000000000010000000000000000000000000000110000000000000000000000000000000000000000001111111111111111111111111111100000000000000000000000000000001111111100000001111111111111111000000000000000000110000000000000000000000000000110000000000000000000000000000000000000000001111011111111111111111111111110000000000000000000000000000011111111100000001111111111111110000000000000000000000000000000000000000000000000110000000000000000000000000000000000000000000111111111111111111111111111111110000000000000000000000000111111111111000000111111111111110000000000000000000000000000000000000000000000000110000000000000000000000000000000000000000101111111111111111111111111111111110000000000000000000000000001111111111100000011111111111110000000000000000000000000000000000000000000000000110000000000000000000000000000000000000000111111111111111111111111111111111111000000000000000000000000001111111111100000011111111111110000000000000000000000000000000000000000000000000110000000000000000000000000000000000000000011111111111111111111111111111111111000000000000000000000000001111111111110000011111111111110000000000000000000000000000000000000000000000000110000000000000000000000000000000000000000001101111110111111111111111111111111100000000000000011111111111111111111111100001111111111110000000000000000000000000000000000000000000000000110000000000000000000000000000000000000000000111111111111111111111111111111111100000000000000000111111111111111111111110001111111111100000000000000000000000000000000000000000000000000110000000000000000000000000000000000000000000111111111111111111111111111111111100000111100000000011111111111111111111110001111111111100000000000000000000000000000000000001000000000000110000000000000000000000000000000000000000000011111111111111111111111111111111111111111110000000000011111111111111111111001111111111100000000000000000000000000000000000000000000000000110000000000000000000000000000000000000000000001111111111111111111111111111111111111111111001110000011111111111111111111001111111111100000000000000000000000000000000000000000000000000110000000000000000000000000000000000000000000000111111111111111111111111111111111111111111111111100000111111111111111111001111111111000000000000000000000000000000000000000000000000000110000000000000000000000000000000000000000000000111111111111111111111111111111111111111111110011100000111111111111111111111111111111000000000000000000000000000000000000001000000000000110000000000000000000000000000000000000000000000001111111111111111111111111111111111111111110001110000001111111111111111111111111111000000000000000000000000000000000000000000000000000110000000000000000000000000000000000000000000000001111111111111111111111111111111101111111110000111000001111111111111111111111111110000000000000000000000000000000000000000000000000000110000000000000000000000000000000000000000000000000101111111111111111111111111111111111111110000111000001111111111111111111111111110000000000000000000000000000000000000000000000000000110000000000000000000000000000000000000000000000000001111111111111111111111111110001111111110000011100000111111111111111111111111110000000000000000000000000000000000000000000000100000110000000000000000000000000000000000000000000000000001111111111111111111111111110011111100110000001111111111111111111111111111111100000000000000000000000000000000000000000000000000100111111111111111111111111111111111111111111111111111111111111111111111111111111111111111111111111111111111111111111111111111111111111111111111111111111111111111111111111111111111111100111111111111111111111111111111111111111111111111111111111111111111111111111111111111111111111111111111111111111111111111111111111111111111111111111111111111111111111111111111111111100