P2
# Zoom
50 50
255
245
252
255
255
255
255
252
254
254
253
252
252
251
255
255
253
255
255
255
255
254
255
255
255
255
254
253
255
255
255
255
254
254
253
253
255
255
254
254
252
252
255
255
254
253
255
255
253
252
255
255
6
21
14
14
16
33
43
43
44
45
44
39
36
43
40
42
41
36
32
20
28
31
34
36
40
42
46
49
54
54
51
48
51
52
46
44
43
34
39
32
29
22
34
27
23
37
53
57
63
255
0
8
3
3
10
25
26
26
30
34
34
30
29
35
34
36
35
34
28
18
23
26
32
36
40
44
47
54
55
55
44
46
44
45
43
42
40
43
42
34
21
17
24
18
20
21
44
44
49
255
3
0
0
0
4
22
25
27
29
34
35
29
27
36
34
36
34
33
27
17
25
28
32
39
37
42
49
49
52
52
45
46
46
45
43
41
38
39
36
31
23
11
21
18
19
21
38
38
56
255
3
0
0
0
2
17
21
23
25
30
33
28
25
36
34
34
32
29
27
17
21
29
30
34
34
36
43
43
49
49
41
39
41
39
36
36
37
35
33
29
22
13
19
8
10
15
32
32
44
255
4
0
0
0
3
13
20
23
26
33
39
31
30
37
36
60
58
79
95
86
65
65
39
33
20
25
32
36
41
41
37
28
36
33
35
34
32
31
30
23
15
6
21
9
9
13
25
29
38
255
4
0
0
0
0
10
20
26
32
35
38
38
31
41
59
89
124
126
135
129
133
139
160
89
21
15
28
31
38
38
30
25
34
32
34
31
26
25
23
21
11
5
19
9
5
12
21
24
36
255
11
1
0
0
0
11
20
32
35
48
48
24
66
84
81
89
97
115
120
134
134
142
145
166
161
66
5
28
36
33
28
26
35
33
35
31
26
23
21
18
6
2
19
7
0
9
16
20
29
255
11
1
0
0
1
14
26
38
47
50
50
58
77
40
67
93
85
113
126
141
133
141
137
149
153
159
148
24
26
29
27
22
34
32
33
31
28
21
17
16
4
1
15
5
0
5
11
16
28
252
12
0
0
0
0
22
29
47
61
8
81
11
3
38
37
52
61
87
80
98
112
103
116
143
137
146
149
160
12
26
26
15
32
30
29
28
31
25
20
12
4
1
11
0
0
0
7
11
30
252
13
3
0
0
1
30
34
50
0
76
21
60
54
96
112
28
64
93
108
105
111
117
119
122
146
153
152
149
30
24
27
16
33
34
34
33
36
26
15
11
6
1
11
5
3
0
7
11
30
251
14
5
0
0
4
36
45
27
10
106
132
98
71
74
82
19
50
97
109
124
119
129
141
138
141
150
155
171
67
28
28
18
34
36
37
36
40
26
17
10
7
1
11
2
1
0
7
11
30
251
22
9
2
0
11
47
55
2
87
98
76
54
57
85
81
37
62
81
112
131
142
143
139
135
116
142
158
152
160
37
39
15
29
36
35
35
35
31
22
9
0
0
16
3
0
2
4
10
22
251
28
10
8
5
19
46
7
76
86
128
36
54
51
95
85
40
43
80
119
118
133
133
137
140
122
143
153
158
124
68
39
23
31
38
42
42
42
36
20
11
2
0
16
3
0
0
3
8
19
255
34
19
9
13
17
64
0
67
69
15
60
26
47
94
100
58
18
76
82
139
121
134
123
127
146
147
155
146
133
47
38
19
29
40
46
44
41
34
26
16
5
2
15
3
0
2
1
5
14
255
42
21
11
16
27
13
90
17
52
25
46
10
20
52
87
60
22
73
89
0
6
79
144
138
144
147
171
154
168
133
44
26
33
44
49
46
42
32
23
17
10
2
13
3
0
0
0
3
11
255
42
20
12
19
22
54
69
17
1
53
13
8
7
54
53
60
14
52
77
70
86
38
109
145
153
128
116
156
169
154
64
29
38
47
53
49
47
32
23
15
8
0
11
3
0
0
0
3
11
255
49
21
19
23
11
41
0
10
14
7
32
9
23
38
39
76
13
42
70
47
29
114
16
129
128
15
1
110
169
156
75
18
44
53
57
60
52
36
30
16
8
0
11
3
0
0
0
3
13
254
51
22
17
32
36
66
3
45
28
1
0
0
0
29
29
89
97
78
40
23
159
94
89
137
54
0
44
116
152
162
151
52
48
54
60
65
55
38
34
22
11
4
7
3
0
0
0
3
14
254
51
22
16
28
44
70
10
80
68
1
0
0
0
0
16
43
78
78
87
37
67
108
83
144
99
18
44
156
163
146
154
73
60
56
68
66
59
45
37
28
14
1
3
3
0
0
1
6
16
253
51
21
20
29
15
21
17
101
92
43
10
0
0
1
3
11
119
120
126
134
112
119
98
110
159
130
151
172
143
137
100
80
62
65
69
68
64
50
43
23
19
3
4
2
2
3
8
11
26
255
48
24
19
38
49
3
19
105
104
0
24
0
6
1
3
8
115
126
129
134
149
106
59
93
155
116
151
141
114
121
69
58
59
73
85
81
52
42
89
34
9
3
4
2
2
1
8
13
26
255
46
25
25
34
44
9
66
100
71
0
14
3
8
1
3
8
116
123
137
140
132
76
4
105
150
153
122
120
92
97
82
56
71
69
105
92
45
105
164
152
86
3
4
2
2
0
8
14
26
255
46
27
26
33
55
25
42
1
138
1
28
31
0
0
3
40
90
82
129
121
109
15
84
49
129
155
144
113
108
74
70
58
73
63
95
35
74
130
73
88
133
134
186
83
134
2
3
12
22
255
46
27
23
33
42
36
24
14
0
9
3
24
0
0
1
48
79
57
122
125
121
0
0
12
44
119
152
117
98
76
77
66
97
8
61
3
124
56
105
161
139
105
102
160
121
4
1
6
15
255
45
27
22
33
38
35
1
2
0
2
0
0
0
1
2
36
50
59
60
67
124
116
105
97
137
128
122
91
84
70
91
130
0
11
141
0
21
10
8
63
57
73
143
99
133
18
14
0
22
255
46
28
21
31
7
3
5
23
20
2
0
0
0
7
6
36
13
60
11
72
47
37
65
110
113
140
135
90
80
77
56
131
13
67
131
127
100
14
83
75
27
19
0
6
84
164
42
14
22
255
44
35
31
18
0
4
20
32
48
13
0
0
0
0
0
54
0
48
0
2
6
0
0
24
87
121
124
86
78
84
34
88
17
80
116
129
140
142
121
99
59
14
37
147
136
31
12
15
22
255
51
51
5
4
4
14
42
61
31
38
0
0
0
0
0
4
16
59
66
56
67
49
43
61
29
122
104
84
76
79
26
26
47
94
106
112
101
132
95
127
24
122
108
72
8
1
2
14
20
254
63
1
2
3
22
30
33
51
47
14
0
3
4
0
0
0
20
31
74
92
136
141
130
131
30
132
99
90
78
74
5
14
16
70
110
123
101
110
96
147
76
158
148
147
154
8
6
11
21
252
0
0
1
11
24
54
37
48
41
57
0
1
0
0
0
4
1
0
22
76
107
140
138
121
113
118
102
90
78
73
13
5
25
34
128
106
98
117
82
14
9
36
0
0
12
10
6
9
19
255
0
0
0
11
41
45
57
36
30
40
43
7
4
0
1
0
0
5
1
6
3
19
36
10
57
112
104
89
81
84
84
8
18
52
117
115
127
91
22
2
1
2
4
18
23
12
7
9
18
255
0
0
7
0
48
39
42
41
34
26
56
22
2
0
0
0
0
4
0
12
0
116
79
0
103
54
61
97
88
88
95
0
42
50
111
96
120
98
39
38
0
12
10
39
23
12
7
9
18
255
0
0
3
8
49
45
56
46
42
56
35
39
26
0
1
0
0
1
2
141
118
96
84
2
13
23
28
104
96
91
81
14
61
72
102
110
125
109
71
50
10
0
40
34
18
12
7
9
18
255
2
0
1
0
47
34
37
52
56
46
51
53
58
24
24
3
10
4
80
106
123
126
0
17
13
0
15
26
99
105
84
5
86
95
103
125
126
127
62
0
0
20
45
29
21
9
2
12
18
255
2
0
0
1
44
22
31
33
26
63
31
61
54
81
22
48
109
55
93
116
124
110
7
22
10
1
2
0
69
107
51
74
77
109
130
130
127
99
31
5
37
43
40
23
17
9
2
12
18
255
2
0
0
21
4
21
11
38
34
63
66
33
34
54
94
4
40
127
122
115
123
98
29
2
0
19
1
0
1
0
51
75
88
82
95
123
104
0
0
0
0
101
24
19
12
11
7
11
15
255
2
0
2
7
39
40
8
32
32
55
39
40
64
16
56
71
43
81
123
112
115
106
69
9
15
33
3
1
0
2
23
53
96
77
74
75
94
35
15
56
37
107
18
17
13
10
10
10
17
255
2
0
0
8
0
15
37
20
30
47
69
56
62
69
49
127
52
43
86
106
108
111
84
0
25
31
0
7
3
1
39
35
69
86
94
76
82
110
41
99
83
22
0
0
0
0
0
0
7
255
2
0
0
0
3
6
21
35
24
46
46
56
47
61
58
111
116
48
78
99
98
107
75
0
13
3
0
2
5
0
0
0
37
101
102
109
105
66
0
0
47
35
7
2
0
0
0
0
2
255
2
0
0
0
0
9
0
28
25
37
68
65
70
78
61
47
112
89
54
91
109
94
75
2
1
0
0
1
0
51
96
79
78
62
97
118
98
13
37
44
59
37
18
16
10
2
7
16
28
255
2
0
0
0
0
0
3
8
42
35
80
58
79
80
84
59
132
115
46
45
74
62
48
2
1
0
2
0
1
5
25
48
46
120
91
18
113
0
43
53
70
63
43
33
29
25
32
43
52
255
2
0
0
0
0
0
0
8
4
31
47
65
60
62
70
83
78
71
71
48
60
41
26
2
0
0
1
85
87
97
79
74
47
127
120
100
0
7
41
17
72
59
21
8
8
7
4
6
6
255
2
0
0
0
0
0
0
0
8
30
51
62
58
68
69
69
67
68
80
39
49
31
15
1
0
0
0
27
7
31
77
82
74
124
107
117
1
7
39
77
59
61
9
3
3
6
5
8
17
255
2
0
0
0
0
0
0
3
12
17
44
49
67
67
80
84
89
90
52
40
64
19
0
3
0
0
6
25
3
0
0
43
82
123
110
100
3
3
13
57
45
49
31
27
27
25
27
31
47
255
3
0
0
0
0
0
0
2
10
22
43
47
81
79
78
80
93
93
87
59
52
5
0
0
4
0
30
55
95
95
21
2
98
115
117
106
3
4
26
46
41
55
39
37
36
37
38
43
50
255
3
0
0
0
0
0
0
0
0
6
24
64
74
86
63
83
83
92
91
98
82
2
0
3
5
20
24
45
83
91
112
19
54
115
107
113
6
5
7
42
47
32
29
31
35
38
39
43
48
255
9
0
0
0
0
0
0
0
2
5
9
24
68
80
76
58
65
95
101
100
99
77
97
115
18
1
50
68
96
107
97
108
32
108
100
108
8
9
20
32
37
39
34
33
31
51
48
44
40
255
16
5
0
0
0
0
0
0
0
3
5
14
49
75
81
71
63
65
83
80
107
110
66
86
88
104
25
67
99
100
104
111
67
93
102
79
14
22
21
37
37
39
45
48
46
52
49
46
38
241
31
0
3
1
2
3
3
3
0
3
11
12
14
50
75
78
82
86
85
92
107
55
71
93
100
15
85
50
82
101
99
116
99
106
119
19
0
24
33
43
39
35
38
37
33
34
36
37
33
