P1
# image XOR
165 106
011111111111111111111111111111111111111111111111111111111111111111111111111111111111111111111111111111111111111111111111111111111111111111111111111111111111111111100011000000000000000000000000000000000000000000000000000000000000000000000000000000000000000000000000000000000000000000000000000000000000000000000000000000000000000000011000000000000000000000000000000000000000000000000000000000000000000000000000000000000000000000000000000000000000000000000000000000000000000000000000000000000000000011000000000000000000000000000000000000000000000000000000000000000000000000000000000000000000000000000000000000000000000000000000000000000000000000000000000000000000011000000000000000000000000000000000000000000000000000000000000000000000000000000000000000000000000000000000000000000000000000000000000000000000000000000000000000000011000000000000000000000000000000000000000000000000000000000000000000000000000000000000000000000000000000000000000000000000000000000000000000000000000000000000000000011000000000000000000000000000000000000000000000000000000000000000000000000000000000000000000000000000000000000000000000000000000000000000000000000000000000000000000011000000000000000000000000000000000000000000000000000000000000000000000000000000000000000000000000000000000000000000000000000000000000000000000000000000000000000000011000000000000000000000000000000000000000000000000000000000000000000000000000000000000000000000000000000000000000000000000000000000000000000000000000000000000000000011000000000000000000000000000000000000000000000000000000000000000000000000000000000000000000000000000000000000000000000000000000000000000000000000000000000000000000011000000000000000000000000000000000000000000000000000000000000000000000000000000000000000000000000000000000000000000000000000000000000000000000000000000000000000000011000000000000000000000000000000000000000000000000000000000000000000000000000000000000000000000000000000000000000000000000000000000000000000000000000000000000000000011000000000000000000000000000000000000000000000000000000000000000000000000000000000000000000000000000000000000000000000000000000000000000000000000000000000000000000011000000000000000000000000000000000000000000000000000000000000000000000000000000000000000111111111111111111111111111111111111111111111111111111111111100000000000000011000000000000000000000000000000000000000000000000000000000000000000000000000000000000000111111111111111111111111111111111111111111111111111111111111100000000000000011000000000000000000000000000000000000000000000000000000000000000000000000000000000000000111111111111111111111111111111111111111111111111111111111111100000000000000011000000000000000000000000000000000000000000000000000000000000000000000000000000000000000111111111111111111111111111111111111111111111111111111111111100000000000000011000000000000000000000000000000000000000000000000000000000000000000000000000000000000000111111111111111111111111111111111111111111111111111111111111100000000000000011000000000000000000000000000000000000000000000000000000000000000000000000000000000000000111111111111111111111111111111111111111111111111111111111111100000000000000011000000000000000000000000000000000000000000000000000000000000000000000000000000000000000111111111111111111111111111111111111111111111111111111111111100000000000000011000000000000000000000000000000000000000000000000000000000000000000000000000000000000000111111111111111111111111111111111111111111111111111111111111100000000000000011000000000000000000000000000000000000000000000000000000000000000000000000000000000000000111111111111111111111111111111111111111111111111111111111111100000000000000011000000000000000000000000000000000000000000000000000000000000000000000000000000000000000111111111111111111111111111111111111111111111111111111111111100000000000000011000000000000000000000000000000000000000000000000000000000000000000000000000000000000000111111111111111111111111111111111111111111111111111111111111100000000000000011000000000000000000000000000000000000000000000000000000000000000000000000000000000000000111111111111111111111111111111111111111111111111111111111111100000000000000011000000000000000000000000000000000000000000000000000000000000000000000000000000000000000111111111111111111111111111111111111111111111111111111111111100000000000000011000000000000000000000000000000000000000000000000000000000000000000000000000000000000000111111111111111111111111111111111111111111111111111111111111100000000000000011000000000000000000000000000000000000000000000000000000000000000000000000000000000000000111111111111111111111111111111111111111111111111111111111111100000000000000011000000000000000000000000000000000000000000000000000000000000000000000000000000000000000111111111111111111111111111111111111111111111111111111111111100000000000000011000000000000000000000000000000000000000000000000000000000000000000000000000000000000000111111111111111111111111111111111111111111111111111111111111100000000000000011000000000000000000000000000000000000000000000000000000000000000000000000000000000000000111111111111111111111111111111111111111111111111111111111111100000000000000011000000000000000111111111111111111111111111111111111111111111111111111111111111111111111000000000000000000000000111111111111111111111111111111111111100000000000000011000000000000000111111111111111111111111111111111111111111111111111111111111111111111111000000000000000000000000111111111111111111111111111111111111100000000000000011000000000000000111111111111111111111111111111111111111111111111111111111111111111111111000000000000000000000000111111111111111111111111111111111111100000000000000011000000000000000111111111111111111111111111111111111111111111111111111111111111111111111000000000000000000000000111111111111111111111111111111111111100000000000000011000000000000000111111111111111111111111111111111111111111111111111111111111111111111111000000000000000000000000111111111111111111111111111111111111100000000000000011000000000000000111111111111111111111111111111111111111111111111111111111111111111111111000000000000000000000000111111111111111111111111111111111111100000000000000011000000000000000111111111111111111111111111111111111111111111111111111111111111111111111000000000000000000000000111111111111111111111111111111111111100000000000000011000000000000000111111111111111111111111111111111111111111111111111111111111111111111111000000000000000000000000111111111111111111111111111111111111100000000000000011000000000000000111111111111111111111111111111111111111111111111111111111111111111111111000000000000000000000000111111111111111111111111111111111111100000000000000011000000000000000111111111111111111111111111111111111111111111111111111111111111111111111000000000000000000000000111111111111111111111111111111111111100000000000000011000000000000000111111111111111111111111111111111111111111111111111111111111111111111111000000000000000000000000111111111111111111111111111111111111100000000000000011000000000000000111111111111111111111111111111111111111111111111111111111111111111111111000000000000000000000000111111111111111111111111111111111111100000000000000011000000000000000111111111111111111111111111111111111111111111111111111111111111111111111000000000000000000000000111111111111111111111111111111111111100000000000000011000000000000000111111111111111111111111111111111111111111111111111111111111111111111111000000000000000000000000111111111111111111111111111111111111100000000000000011000000000000000111111111111111111111111111111111111111111111111111111111111111111111111000000000000000000000000111111111111111111111111111111111111100000000000000011000000000000000111111111111111111111111111111111111111111111111111111111111111111111111000000000000000000000000111111111111111111111111111111111111100000000000000011000000000000000111111111111111111111111111111111111111111111111111111111111111111111111000000000000000000000000111111111111111111111111111111111111100000000000000011000000000000000111111111111111111111111111111111111111111111111111111111111111111111111000000000000000000000000111111111111111111111111111111111111100000000000000011000000000000000111111111111111111111111111111111111111111111111111111111111111111111111000000000000000000000000111111111111111111111111111111111111100000000000000011000000000000000111111111111111111111111111111111111111111111111111111111111111111111111000000000000000000000000111111111111111111111111111111111111100000000000000011000000000000000111111111111111111111111111111111111111111111111111111111111111111111111000000000000000000000000111111111111111111111111111111111111100000000000000011000000000000000111111111111111111111111111111111111111111111111111111111111111111111111000000000000000000000000111111111111111111111111111111111111100000000000000011000000000000000111111111111111111111111111111111111111111111111111111111111111111111111000000000000000000000000111111111111111111111111111111111111100000000000000011000000000000000111111111111111111111111111111111111111111111111111111111111111111111111000000000000000000000000111111111111111111111111111111111111100000000000000011000000000000000111111111111111111111111111111111111111111111111111111111111111111111111000000000000000000000000111111111111111111111111111111111111100000000000000011000000000000000111111111111111111111111111111111111111111111111111111111111111111111111000000000000000000000000111111111111111111111111111111111111100000000000000011000000000000000111111111111111111111111111111111111111111111111111111111111111111111111000000000000000000000000111111111111111111111111111111111111100000000000000011000000000000000111111111111111111111111111111111111111111111111111111111111111111111111000000000000000000000000111111111111111111111111111111111111100000000000000011000000000000000111111111111111111111111111111111111111111111111111111111111111111111111000000000000000000000000111111111111111111111111111111111111100000000000000011000000000000000111111111111111111111111111111111111111111111111111111111111111111111111000000000000000000000000111111111111111111111111111111111111100000000000000011000000000000000111111111111111111111111111111111111111111111111111111111111111111111111000000000000000000000000111111111111111111111111111111111111100000000000000011000000000000000111111111111111111111111111111111111111111111111111111111111111111111111000000000000000000000000111111111111111111111111111111111111100000000000000011000000000000000111111111111111111111111111111111111111111111111111111111111111111111111000000000000000000000000111111111111111111111111111111111111100000000000000011000000000000000111111111111111111111111111111111111111111111111111111111111111111111111111111111111111111111111000000000000000000000000000000000000000000000000000011000000000000000111111111111111111111111111111111111111111111111111111111111111111111111111111111111111111111111000000000000000000000000000000000000000000000000000011000000000000000111111111111111111111111111111111111111111111111111111111111111111111111111111111111111111111111000000000000000000000000000000000000000000000000000011000000000000000111111111111111111111111111111111111111111111111111111111111111111111111111111111111111111111111000000000000000000000000000000000000000000000000000011000000000000000111111111111111111111111111111111111111111111111111111111111111111111111111111111111111111111111000000000000000000000000000000000000000000000000000011000000000000000111111111111111111111111111111111111111111111111111111111111111111111111111111111111111111111111000000000000000000000000000000000000000000000000000011000000000000000111111111111111111111111111111111111111111111111111111111111111111111111111111111111111111111111000000000000000000000000000000000000000000000000000011000000000000000111111111111111111111111111111111111111111111111111111111111111111111111111111111111111111111111000000000000000000000000000000000000000000000000000011000000000000000111111111111111111111111111111111111111111111111111111111111111111111111111111111111111111111111000000000000000000000000000000000000000000000000000011000000000000000111111111111111111111111111111111111111111111111111111111111111111111111111111111111111111111111000000000000000000000000000000000000000000000000000011000000000000000111111111111111111111111111111111111111111111111111111111111111111111111111111111111111111111111000000000000000000000000000000000000000000000000000011000000000000000111111111111111111111111111111111111111111111111111111111111111111111111111111111111111111111111000000000000000000000000000000000000000000000000000011000000000000000111111111111111111111111111111111111111111111111111111111111111111111111111111111111111111111111000000000000000000000000000000000000000000000000000011000000000000000111111111111111111111111111111111111111111111111111111111111111111111111111111111111111111111111000000000000000000000000000000000000000000000000000011000000000000000111111111111111111111111111111111111111111111111111111111111111111111111111111111111111111111111000000000000000000000000000000000000000000000000000011000000000000000111111111111111111111111111111111111111111111111111111111111111111111111111111111111111111111111000000000000000000000000000000000000000000000000000011000000000000000111111111111111111111111111111111111111111111111111111111111111111111111111111111111111111111111000000000000000000000000000000000000000000000000000011000000000000000111111111111111111111111111111111111111111111111111111111111111111111111111111111111111111111111000000000000000000000000000000000000000000000000000011000000000000000111111111111111111111111111111111111111111111111111111111111111111111111111111111111111111111111000000000000000000000000000000000000000000000000000011000000000000000111111111111111111111111111111111111111111111111111111111111111111111111111111111111111111111111000000000000000000000000000000000000000000000000000011000000000000000111111111111111111111111111111111111111111111111111111111111111111111111111111111111111111111111000000000000000000000000000000000000000000000000000011000000000000000111111111111111111111111111111111111111111111111111111111111111111111111111111111111111111111111000000000000000000000000000000000000000000000000000011000000000000000111111111111111111111111111111111111111111111111111111111111111111111111111111111111111111111111000000000000000000000000000000000000000000000000000011000000000000000111111111111111111111111111111111111111111111111111111111111111111111111111111111111111111111111000000000000000000000000000000000000000000000000000011000000000000000111111111111111111111111111111111111111111111111111111111111111111111111111111111111111111111111000000000000000000000000000000000000000000000000000011000000000000000111111111111111111111111111111111111111111111111111111111111111111111111111111111111111111111111000000000000000000000000000000000000000000000000000011000000000000000111111111111111111111111111111111111111111111111111111111111111111111111111111111111111111111111000000000000000000000000000000000000000000000000000011000000000000000111111111111111111111111111111111111111111111111111111111111111111111111111111111111111111111111000000000000000000000000000000000000000000000000000011000000000000000111111111111111111111111111111111111111111111111111111111111111111111111111111111111111111111111000000000000000000000000000000000000000000000000000011000000000000000111111111111111111111111111111111111111111111111111111111111111111111111111111111111111111111111000000000000000000000000000000000000000000000000000011000000000000000111111111111111111111111111111111111111111111111111111111111111111111111111111111111111111111111000000000000000000000000000000000000000000000000000011000000000000000111111111111111111111111111111111111111111111111111111111111111111111111111111111111111111111111000000000000000000000000000000000000000000000000000011000000000000000000000000000000000000000000000000000000000000000000000000000000000000000000000000000000000000000000000000000000000000000000000000000000000000000000011000000000000000000000000000000000000000000000000000000000000000000000000000000000000000000000000000000000000000000000000000000000000000000000000000000000000000000011000000000000000000000000000000000000000000000000000000000000000000000000000000000000000000000000000000000000000000000000000000000000000000000000000000000000000000011000000000000000000000000000000000000000000000000000000000000000000000000000000000000000000000000000000000000000000000000000000000000000000000000000000000000000000011000000000000000000000000000000000000000000000000000000000000000000000000000000000000000000000000000000000000000000000000000000000000000000000000000000000000000000011000000000000000000000000000000000000000000000000000000000000000000000000000000000000000000000000000000000000000000000000000000000000000000000000000000000000000000011000000000000000000000000000000000000000000000000000000000000000000000000000000000000000000000000000000000000000000000000000000000000000000000000000000000000000000011000000000000000000000000000000000000000000000000000000000000000000000000000000000000000000000000000000000000000000000000000000000000000000000000000000000000000000011000000000000000000000000000000000000000000000000000000000000000000000000000000000000000000000000000000000000000000000000000000000000000000000000000000000000000000011000000000000000000000000000000000000000000000000000000000000000000000000000000000000000000000000000000000000000000000000000000000000000000000000000000000000000000